<svg width="40" height="40" viewBox="0 0 40 40" fill="none" xmlns="http://www.w3.org/2000/svg">
<path d="M33.1875 24.125H28.5V26.5H33.1875C33.8125 26.5 34.375 27 34.375 27.6875C34.375 28.375 33.875 28.875 33.1875 28.875H3.9375C3.3125 28.875 2.75 29.375 2.75 30.0625C2.75 30.6875 3.25 31.25 3.9375 31.25H33.25C35.1875 31.25 36.75 29.6875 36.75 27.75C36.75 25.6875 35.125 24.125 33.1875 24.125ZM34.0625 16.0625L31.75 15.875C31.75 15.8125 33.1875 7.25 33.5 5.5C33.6875 4.5 34.0625 1.6875 37.625 1.6875V4.0625C36.1875 4.0625 36 4.625 35.875 5.6875C35.5 7.4375 34.0625 15.9375 34.0625 16.0625Z" fill="#DFE6ED"/>
<path d="M34.1875 7.6875H2.49999C1.31249 7.6875 1.12499 8.8125 1.31249 9.4375L4.87499 25.3125C5.06249 25.9375 5.68749 26.4375 6.37499 26.4375H31.25C31.875 26.4375 32.5 25.9375 32.625 25.25L35.25 8.8125C35.3125 8.25 34.8125 7.6875 34.1875 7.6875ZM4.31249 13L3.68749 10.625C3.62499 10.3125 3.81249 10.0625 4.12499 10.0625H8.56249C8.87499 10.0625 9.18749 10.3125 9.18749 10.625L9.43749 13C9.49999 13.3125 9.24999 13.5625 8.93749 13.5625H4.99999C4.68749 13.5625 4.37499 13.3125 4.31249 13ZM6.31249 18.8125C5.99999 18.8125 5.68749 18.5625 5.56249 18.25L5.12499 16.4375C5.06249 16.125 5.24999 15.875 5.56249 15.875H9.12499C9.43749 15.875 9.74999 16.125 9.74999 16.4375L9.93749 18.1875C9.99999 18.5 9.74999 18.75 9.43749 18.75C9.49999 18.8125 6.31249 18.8125 6.31249 18.8125ZM10.0625 24.125H7.62499C7.31249 24.125 6.99999 23.875 6.87499 23.5625L6.43749 21.75C6.37499 21.4375 6.56249 21.1875 6.87499 21.1875H9.68749C9.99999 21.1875 10.3125 21.4375 10.3125 21.75L10.5 23.5C10.625 23.8125 10.375 24.125 10.0625 24.125ZM17.25 23.5C17.25 23.8125 17 24.0625 16.6875 24.0625H13.625C13.3125 24.0625 13 23.8125 13 23.5L12.8125 21.75C12.75 21.4375 13 21.1875 13.3125 21.1875H16.6875C17 21.1875 17.25 21.4375 17.25 21.75V23.5ZM17.25 18.25C17.25 18.5625 17 18.8125 16.6875 18.8125H13.0625C12.75 18.8125 12.4375 18.5625 12.4375 18.25L12.25 16.5C12.1875 16.1875 12.4375 15.9375 12.75 15.9375H16.6875C17 15.9375 17.25 16.1875 17.25 16.5V18.25ZM17.25 13C17.25 13.3125 17 13.5625 16.6875 13.5625H12.5C12.1875 13.5625 11.875 13.3125 11.875 13L11.5625 10.625C11.5 10.3125 11.75 10.0625 12.0625 10.0625H16.625C16.9375 10.0625 17.1875 10.3125 17.1875 10.625C17.25 10.625 17.25 13 17.25 13ZM23.625 23.5C23.5625 23.8125 23.3125 24.0625 23 24.0625H20.25C19.9375 24.0625 19.6875 23.8125 19.6875 23.5V21.75C19.6875 21.4375 19.9375 21.1875 20.25 21.1875H23.3125C23.625 21.1875 23.875 21.4375 23.8125 21.75L23.625 23.5ZM24.1875 18.25C24.125 18.5625 23.875 18.8125 23.5625 18.8125H20.25C19.9375 18.8125 19.6875 18.5625 19.6875 18.25V16.5C19.6875 16.1875 19.9375 15.9375 20.25 15.9375H23.875C24.1875 15.9375 24.4375 16.1875 24.375 16.5L24.1875 18.25ZM24.75 13C24.6875 13.3125 24.4375 13.5625 24.125 13.5625H20.25C19.9375 13.5625 19.6875 13.3125 19.6875 13V10.625C19.6875 10.3125 19.9375 10.0625 20.25 10.0625H24.5C24.8125 10.0625 25.0625 10.3125 25 10.625L24.75 13ZM30.1875 23.5C30.125 23.8125 29.8125 24.0625 29.5 24.0625H26.5C26.1875 24.0625 25.9375 23.8125 26 23.5L26.1875 21.75C26.25 21.4375 26.5 21.1875 26.8125 21.1875H30C30.3125 21.1875 30.5625 21.4375 30.5 21.75L30.1875 23.5ZM31 18.25C30.9375 18.5625 30.625 18.8125 30.3125 18.8125H27C26.6875 18.8125 26.4375 18.5625 26.5 18.25L26.6875 16.5C26.75 16.1875 27 15.9375 27.3125 15.9375H30.75C31.0625 15.9375 31.3125 16.1875 31.25 16.5L31 18.25ZM31.8125 13C31.75 13.3125 31.4375 13.5625 31.125 13.5625H27.5625C27.25 13.5625 27 13.3125 27.0625 13L27.3125 10.625C27.375 10.3125 27.625 10.0625 27.9375 10.0625H31.625C31.9375 10.0625 32.1875 10.3125 32.125 10.625L31.8125 13Z" fill="#DFE6ED"/>
<path d="M7.6875 38.75C9.6205 38.75 11.1875 37.183 11.1875 35.25C11.1875 33.317 9.6205 31.75 7.6875 31.75C5.7545 31.75 4.1875 33.317 4.1875 35.25C4.1875 37.183 5.7545 38.75 7.6875 38.75Z" fill="#DFE6ED"/>
<path d="M7.6875 37C8.654 37 9.4375 36.2165 9.4375 35.25C9.4375 34.2835 8.654 33.5 7.6875 33.5C6.721 33.5 5.9375 34.2835 5.9375 35.25C5.9375 36.2165 6.721 37 7.6875 37Z" fill="#DFE6ED"/>
<path d="M28.8125 38.75C30.7455 38.75 32.3125 37.183 32.3125 35.25C32.3125 33.317 30.7455 31.75 28.8125 31.75C26.8795 31.75 25.3125 33.317 25.3125 35.25C25.3125 37.183 26.8795 38.75 28.8125 38.75Z" fill="#DFE6ED"/>
<path d="M38.1875 1.25H36.4375V4.75H38.1875C38.5 4.75 38.75 4.5 38.75 4.1875V1.8125C38.75 1.5 38.5 1.25 38.1875 1.25Z" fill="#DFE6ED"/>
<path d="M7.6875 30.5625C5.125 30.5625 3 32.6875 3 35.25H12.375C12.375 32.625 10.3125 30.5625 7.6875 30.5625ZM28.8125 30.5625C26.25 30.5625 24.125 32.6875 24.125 35.25H33.5C33.5 32.625 31.375 30.5625 28.8125 30.5625Z" fill="#DFE6ED"/>
</svg>
