<svg width="283" height="163" viewBox="0 0 283 163" fill="none" xmlns="http://www.w3.org/2000/svg">
<path d="M21 38C30.3888 38 38 30.3888 38 21C38 11.6112 30.3888 4 21 4C11.6112 4 4 11.6112 4 21C4 30.3888 11.6112 38 21 38Z" fill="#DFE6ED"/>
<path d="M242 6H77C68.7157 6 62 12.7157 62 21C62 29.2843 68.7157 36 77 36H242C250.284 36 257 29.2843 257 21C257 12.7157 250.284 6 242 6Z" fill="#DFE6ED"/>
<path d="M21 98C30.3888 98 38 90.3888 38 81C38 71.6112 30.3888 64 21 64C11.6112 64 4 71.6112 4 81C4 90.3888 11.6112 98 21 98Z" fill="#DFE6ED"/>
<path d="M242 66H77C68.7157 66 62 72.7157 62 81C62 89.2843 68.7157 96 77 96H242C250.284 96 257 89.2843 257 81C257 72.7157 250.284 66 242 66Z" fill="#DFE6ED"/>
<path d="M21 158C30.3888 158 38 150.389 38 141C38 131.611 30.3888 124 21 124C11.6112 124 4 131.611 4 141C4 150.389 11.6112 158 21 158Z" fill="#DFE6ED"/>
<path d="M242 126H77C68.7157 126 62 132.716 62 141C62 149.284 68.7157 156 77 156H242C250.284 156 257 149.284 257 141C257 132.716 250.284 126 242 126Z" fill="#DFE6ED"/>
</svg>
