<svg width="283" height="163" viewBox="0 0 283 163" fill="none" xmlns="http://www.w3.org/2000/svg">
<path d="M21 38C30.3888 38 38 30.3888 38 21C38 11.6112 30.3888 4 21 4C11.6112 4 4 11.6112 4 21C4 30.3888 11.6112 38 21 38Z" fill="#DE2222"/>
<path d="M21 98C30.3888 98 38 90.3888 38 81C38 71.6112 30.3888 64 21 64C11.6112 64 4 71.6112 4 81C4 90.3888 11.6112 98 21 98Z" fill="#DE2222"/>
<path d="M21 158C30.3888 158 38 150.389 38 141C38 131.611 30.3888 124 21 124C11.6112 124 4 131.611 4 141C4 150.389 11.6112 158 21 158Z" fill="#DE2222"/>
<path d="M70.6261 129.119L231.514 11.6766C239.591 5.78006 249.703 5.88184 254.099 11.9039C258.495 17.926 255.51 27.5879 247.433 33.4845L86.5452 150.927C78.4677 156.823 68.3555 156.722 63.9595 150.7C59.5636 144.678 62.5486 135.016 70.6261 129.119Z" fill="#DE2222"/>
<path d="M247.432 128.119L86.5451 10.6766C78.4673 4.78006 68.3554 4.88184 63.9594 10.9039C59.5635 16.926 62.5482 26.5879 70.626 32.4845L231.513 149.927C239.591 155.823 249.703 155.722 254.099 149.7C258.495 143.678 255.51 134.016 247.432 128.119Z" fill="#DE2222"/>
</svg>
